<?xml version="1.0" encoding="utf-8"?>
<!-- Generator: Adobe Illustrator 19.2.0, SVG Export Plug-In . SVG Version: 6.00 Build 0)  -->
<svg version="1.1" id="Layer_1" xmlns="http://www.w3.org/2000/svg" xmlns:xlink="http://www.w3.org/1999/xlink" x="0px" y="0px"
	 viewBox="0 0 273 273" style="enable-background:new 0 0 273 273;" xml:space="preserve">
<style type="text/css">
	.st0{fill:#FFFFFF;}
	.st1{fill:#00B6BE;}
</style>
<title>Combined Shape</title>
<desc>Created with Sketch.</desc>
<path class="st0" d="M218.7,171.1c0-2.3-1.8-4.1-4.1-4.1h-22.7c-2.3,0-4.1,1.8-4.1,4.1v22.7c0,2.3,1.8,4.1,4.1,4.1h22.7
	c2.3,0,4.1-1.8,4.1-4.1V171.1z"/>
<g>
	<path id="Combined-Shape" class="st1" d="M20,0h232.5c11,0,20,9,20,20v232.5c0,11-9,20-20,20H20c-11,0-20-9-20-20V20l0,0
		C0,9,9,0,20,0L20,0z M134.9,80l-19.6-11.3c-2-1.1-4.6-0.3-5.8,1.8L47.4,178c-1.2,2.1-0.6,4.8,1.3,5.9l19.6,11.3
		c2,1.1,4.6,0.3,5.8-1.8l62.1-107.6C137.4,83.8,136.8,81.1,134.9,80z M168.1,197.9c2.3,0,4.1-1.8,4.1-4.1V78.4
		c0-2.3-1.8-4.1-4.1-4.1h-22.7c-2.3,0-4.1,1.8-4.1,4.1v115.3c0,2.3,1.8,4.1,4.1,4.1H168.1z M218.7,78.4c0-2.3-1.8-4.1-4.1-4.1h-22.7
		c-2.3,0-4.1,1.8-4.1,4.1v22.7c0,2.3,1.8,4.1,4.1,4.1h22.7c2.3,0,4.1-1.8,4.1-4.1V78.4z M218.7,125.5c0-2.3-1.8-4.1-4.1-4.1h-22.7
		c-2.3,0-4.1,1.8-4.1,4.1v22.7c0,2.3,1.8,4.1,4.1,4.1h22.7c2.3,0,4.1-1.8,4.1-4.1V125.5z"/>
	<path class="st0" d="M218.7,171.1c0-2.3-1.8-4.1-4.1-4.1h-22.7c-2.3,0-4.1,1.8-4.1,4.1v22.7c0,2.3,1.8,4.1,4.1,4.1h22.7
		c2.3,0,4.1-1.8,4.1-4.1V171.1z"/>
</g>
</svg>
